# xmcd
#
# Track frame offsets:
#	150
#	14801
#	28216
#	50044
#	63552
#	77812
#	94915
#	113599
#	133702
#	151670
#	165275
#	179950
#	196013
#	213146
#
# Disc length: 3153
#
# Revision: 2
# Processed by: cddbd v1.5.1PL0 Copyright (c) Steve Scherf et al.
# Submitted via: VisiTrax 2.9.9.209 - For more info visit www.synapsa.com
# Normalized: r1:DSETVAR1
#
DISCID=be0c4f0e
DTITLE=Various Artist - Mr. Music Country 08-04
DYEAR=2004
DGENRE=Country
TTITLE0=Izak and West - Get out of my eyes teardrops
TTITLE1=Rick Trevino - Overnight success
TTITLE2=Elizabeth Cook - I'm not Lisa
TTITLE3=Jim Rooney - Gone girl
TTITLE4=Chad Brock - Young enough to know it all
TTITLE5=Jason Allen - My favorite song
TTITLE6=Heidi Hauge - Save the last dance for me
TTITLE7=Shawn Camp - I feel more like I do right now
TTITLE8=Karen Tobin - I'll be over you
TTITLE9=Dwight Yoakam - Louisville
TTITLE10=The Woodys - Telluride to Tennessee
TTITLE11=Deborah Allen - Break these chains
TTITLE12=Billy Yates - They don't make us like they used to do
TTITLE13=K. C. Williams - Jennifer O'Brien - The leaving shelf
EXTD=
EXTT0=
EXTT1=
EXTT2=
EXTT3=
EXTT4=
EXTT5=
EXTT6=
EXTT7=
EXTT8=
EXTT9=
EXTT10=
EXTT11=
EXTT12=
EXTT13=
PLAYORDER=
